<?xml version="1.0" encoding="UTF-8"?>
<svg version="1.1" xmlns="http://www.w3.org/2000/svg" width="723" height="716">
<path d="M0 0 C238.59 0 477.18 0 723 0 C723 236.28 723 472.56 723 716 C484.41 716 245.82 716 0 716 C0 479.72 0 243.44 0 0 Z " fill="#010101" transform="translate(0,0)"/>
<path d="M0 0 C152.38053642 0 152.38053642 0 174.5625 21.0625 C183 30.13508065 183 30.13508065 183 36 C183.66 36 184.32 36 185 36 C188.71234721 46.90226869 191.28569075 57.61374329 193 69 C193.26018921 70.51158691 193.26018921 70.51158691 193.52563477 72.05371094 C194.12576464 77.04624791 194.1623671 81.95660187 194.16796875 86.98046875 C194.17129715 88.02971024 194.17462555 89.07895172 194.17805481 90.1599884 C194.18310224 92.37463953 194.18546381 94.58929821 194.18530273 96.80395508 C194.18748159 100.15914745 194.2056399 103.51400664 194.22460938 106.86914062 C194.22754543 109.03124889 194.22952881 111.1933587 194.23046875 113.35546875 C194.23765427 114.34338913 194.24483978 115.33130951 194.25224304 116.34916687 C194.22381934 125.19526456 193.43751042 133.78688892 190 142 C189.566875 143.60875 189.566875 143.60875 189.125 145.25 C185.27187032 158.09376559 178.30697438 167.78342673 166.5859375 174.62890625 C158.34188034 179 158.34188034 179 154 179 C154 179.66 154 180.32 154 181 C155.27875 181.20625 156.5575 181.4125 157.875 181.625 C168.68733111 184.07850236 178.6730297 191.88836491 185.0078125 200.8359375 C195.92157878 219.59249686 198.12296754 242.57788711 198.203125 263.83984375 C198.20882507 265.04202042 198.21452515 266.24419708 198.22039795 267.48280334 C198.22979398 270.01660294 198.23636029 272.55041446 198.24023438 275.08422852 C198.24989374 278.89557101 198.28095143 282.70636277 198.3125 286.51757812 C198.36986632 299.91143916 197.84808522 312.77639636 195.37228394 325.95336914 C194.99014835 328.05415944 194.66503896 330.1573577 194.35571289 332.27001953 C191.1230265 354.09537455 181.09743341 377.18164715 163.41015625 391.02734375 C119.46003549 420.52103712 37.92962788 406 0 406 C0 272.02 0 138.04 0 0 Z " fill="#FDFDFD" transform="translate(47,164)"/>
<path d="M0 0 C146.90839695 0 146.90839695 0 171 24 C200.33105233 56.59005815 198.89045877 107.64039982 196.7890625 148.48974609 C195.73965739 166.0459184 192.56687564 183.29937309 187 200 C186.34 200 185.68 200 185 200 C184.91363281 200.680625 184.82726562 201.36125 184.73828125 202.0625 C183.81290871 205.74440556 182.09579605 208.75832105 180.1875 212 C179.84396484 212.60328125 179.50042969 213.2065625 179.14648438 213.828125 C171.13501294 227.65655599 158.84978252 234.07510874 145 241 C126 245 126 245 80 245 C80 298.13 80 351.26 80 406 C53.6 406 27.2 406 0 406 C0 272.02 0 138.04 0 0 Z " fill="#FDFDFD" transform="translate(491,164)"/>
<path d="M0 0 C1.09957031 0.39316406 2.19914063 0.78632813 3.33203125 1.19140625 C10.45193297 3.96076469 16.76410213 7.60111026 23 12 C23.62390625 12.43699219 24.2478125 12.87398437 24.890625 13.32421875 C42.45955665 26.99350436 48.53241108 48.27123435 53 69 C53.18079102 69.79954102 53.36158203 70.59908203 53.54785156 71.42285156 C56.68134771 85.52046941 56 98.15430966 56 113 C28.94 113 1.88 113 -26 113 C-26.33 101.78 -26.66 90.56 -27 79 C-30.07210287 72.60554701 -30.07210287 72.60554701 -35.55078125 69.6953125 C-40.7873246 68.20870211 -46.96026224 67.64380931 -52.03125 69.90625 C-53.80525322 71.08530282 -53.80525322 71.08530282 -56 73 C-56.66 73 -57.32 73 -58 73 C-62.11076486 79.19111146 -60.90626709 88.97233543 -60 96 C-57.46087574 106.56392745 -51.62904126 114.45358374 -44 122 C-42.94827476 123.24154882 -41.90622729 124.49137387 -40.875 125.75 C-36.92347016 130.29334882 -32.4729457 134.28689506 -28.0480957 138.35864258 C-22.64147564 143.34993019 -17.42410154 148.50563547 -12.27539062 153.76196289 C-9.36701781 156.71236186 -6.41912422 159.54105901 -3.2734375 162.23828125 C1.68106017 166.51816965 6.30906763 171.12301001 10.93579102 175.75048828 C12.42641615 177.23893237 13.92487017 178.71917277 15.42382812 180.19921875 C23.81961372 188.54515615 31.41279602 197.44726035 38.25 207.125 C38.66838135 207.71482666 39.0867627 208.30465332 39.51782227 208.91235352 C46.77095756 219.2664977 51.10395198 230.02793342 55 242 C55.34804688 242.94230469 55.69609375 243.88460937 56.0546875 244.85546875 C57.19394574 248.64515008 57.64921228 252.32556354 58.0625 256.25 C58.44825973 261.27699271 58.44825973 261.27699271 60 266 C60.11148399 268.80002821 60.16412763 271.57435274 60.16796875 274.375 C60.17129715 275.21409912 60.17462555 276.05319824 60.17805481 276.91772461 C60.18312569 278.69986421 60.18546309 280.48201334 60.18530273 282.26416016 C60.18746902 284.9614284 60.20556628 287.65827402 60.22460938 290.35546875 C60.25222287 298.83749651 60.075741 306.73202619 58 315 C57.68385635 317.35100475 57.39022913 319.70520841 57.125 322.0625 C55.65058143 333.35494609 53.81154855 344.7028432 48.2109375 354.75 C46.94798529 357.09664669 46.03949279 359.43632313 45.125 361.9375 C38.20217476 379.69119698 24.643736 391.41261063 7.7265625 399.49609375 C-21.40225464 411.90743496 -60.15221074 408.38283925 -89 397 C-109.35742953 388.48311622 -122.4737329 372.13216065 -131.1875 352.296875 C-131.96589096 350.09642362 -132.53215728 347.97241043 -133 345.6875 C-133.59022603 342.89193331 -134.22147504 340.14362984 -134.9375 337.375 C-137.91281901 325.36001457 -139.43554897 314.27129777 -139.29296875 301.87890625 C-139.28994751 300.57691284 -139.28692627 299.27491943 -139.28381348 297.93347168 C-139.26830421 293.14306531 -139.22642291 288.35277334 -139.1875 283.5625 C-139.125625 272.816875 -139.06375 262.07125 -139 251 C-112.6 251 -86.2 251 -59 251 C-58.67 273.11 -58.34 295.22 -58 318 C-57.34 318 -56.68 318 -56 318 C-53.125 324.625 -53.125 324.625 -52 328 C-45.94697366 331.25009342 -37.93767712 331.16805713 -31.4453125 329.2421875 C-27.5194004 327.41584744 -25.72971211 326.05587668 -24 322 C-23.34 322 -22.68 322 -22 322 C-21.12886408 314.77096094 -20.84619595 307.65282347 -20.875 300.375 C-20.87113281 299.39015625 -20.86726563 298.4053125 -20.86328125 297.390625 C-20.87332201 289.86005444 -21.08625915 283.02725734 -24 276 C-24.309375 274.0509375 -24.309375 274.0509375 -24.625 272.0625 C-28.55402738 253.97697702 -45.16711026 239.50200098 -57.78051758 227.01367188 C-59.70135334 225.11127967 -61.61387837 223.20081848 -63.52539062 221.2890625 C-68.99497172 215.83568167 -74.46150229 210.44571382 -80.34692383 205.43701172 C-83.03871955 203.09704575 -85.51200525 200.55270038 -88 198 C-91.33630056 194.61277557 -94.68053995 191.32482443 -98.3125 188.25 C-102.3069661 184.82032521 -105.66525984 181.06772265 -109 177 C-109.40621582 176.51144531 -109.81243164 176.02289063 -110.23095703 175.51953125 C-119.82351639 163.93129867 -127.96500943 152.05815202 -133.01171875 137.78515625 C-134.00885124 134.82596698 -134.00885124 134.82596698 -135.6875 131.4375 C-139.51586513 121.41082942 -139.31635488 110.68877238 -139.26074219 100.1105957 C-139.25006307 97.70172691 -139.2606728 95.29361129 -139.2734375 92.88476562 C-139.28095851 83.08752282 -138.58061764 73.67543225 -137 64 C-136.34 64 -135.68 64 -135 64 C-135.05414063 62.84242188 -135.10828125 61.68484375 -135.1640625 60.4921875 C-135.1580518 55.93808039 -134.05517644 52.32055238 -132.375 48.125 C-132.10357178 47.42882568 -131.83214355 46.73265137 -131.55249023 46.01538086 C-124.02550174 27.27289694 -110.54864535 12.76185964 -93 3 C-92.30261719 2.59007812 -91.60523438 2.18015625 -90.88671875 1.7578125 C-65.34281286 -12.35423829 -26.57476799 -9.54559494 0 0 Z " fill="#FDFDFD" transform="translate(404,167)"/>
<path d="M0 0 C26.11204545 0 26.11204545 0 34.1875 7.7109375 C36.52584527 10.66410631 37.25720257 13.12206043 37.68359375 16.82421875 C37.90447273 19.0631923 37.90447273 19.0631923 39.00360107 21.18190002 C40.23819076 24.67367132 40.25420415 27.56157093 40.25878906 31.26538086 C40.2622937 31.97823746 40.26579834 32.69109406 40.26940918 33.42555237 C40.27818102 35.77208314 40.27239292 38.11831013 40.265625 40.46484375 C40.26697311 42.10242266 40.26891486 43.74000119 40.27142334 45.37757874 C40.27436857 48.80636411 40.27009688 52.23504513 40.26074219 55.66381836 C40.24935701 60.04965255 40.25590496 64.43524168 40.26788712 68.82106686 C40.27512967 72.20205008 40.27280664 75.58297565 40.26763153 78.96396065 C40.26630119 80.58062329 40.26792111 82.19729123 40.27259064 83.81394768 C40.27769433 86.07784674 40.2698917 88.34135453 40.25878906 90.60522461 C40.25719788 91.89142197 40.25560669 93.17761932 40.25396729 94.50279236 C39.82151899 100.45773836 38.45379774 104.05520772 34 108 C33.2575 108.825 32.515 109.65 31.75 110.5 C22.20866501 119.1739409 13.11902187 118 0 118 C0 79.06 0 40.12 0 0 Z " fill="#050505" transform="translate(126,380)"/>
<path d="M0 0 C21.25063291 0 21.25063291 0 27.83203125 5.54296875 C38.23809311 16.60732162 37.42100654 34.43432536 37.375 48.625 C37.3737915 49.31844513 37.37258301 50.01189026 37.37133789 50.72634888 C37.23128273 80.46543929 37.23128273 80.46543929 29.5 90.5 C20.95479658 98.3186242 11.28429685 98 0 98 C0 65.66 0 33.32 0 0 Z " fill="#030303" transform="translate(571,238)"/>
<path d="M0 0 C24 0 24 0 30 4 C33.48974264 7.97108645 34.12514465 11.26225921 34.14526367 16.45849609 C34.15164352 17.57751312 34.15802338 18.69653015 34.16459656 19.84945679 C34.16570938 21.06187042 34.1668222 22.27428406 34.16796875 23.5234375 C34.17296135 25.40187851 34.17296135 25.40187851 34.17805481 27.31826782 C34.18312497 29.97637466 34.18589506 32.63437938 34.18530273 35.29248047 C34.18522193 37.99632524 34.19208688 40.69999897 34.20581055 43.40380859 C34.22428851 47.31873685 34.2290471 51.23346974 34.23046875 55.1484375 C34.23765427 56.34060883 34.24483978 57.53278015 34.25224304 58.76107788 C34.23108099 66.67485253 33.41827655 74.21568225 32 82 C31.34 82 30.68 82 30 82 C29.690625 82.86625 29.690625 82.86625 29.375 83.75 C28 86 28 86 22 90 C14.74 90 7.48 90 0 90 C0 60.3 0 30.6 0 0 Z " fill="#050505" transform="translate(126,227)"/>
</svg>
