<svg version="1.1" id="Layer_1" xmlns="http://www.w3.org/2000/svg" xmlns:xlink="http://www.w3.org/1999/xlink" x="0px" y="0px"
	 width="100%" viewBox="0 0 1439 1438" enable-background="new 0 0 1439 1438" xml:space="preserve">
<path fill="#010101" opacity="1.000000" stroke="none" 
	d="
M1440.000000,5.000000 
	C1440.000000,482.934082 1440.000000,960.868164 1440.000000,1439.000000 
	C962.965088,1439.000000 485.930176,1439.000000 8.394167,1438.584717 
	C7.597948,1436.053955 7.061039,1433.939941 7.047460,1431.822632 
	C6.967260,1419.317383 6.887384,1406.809937 7.038705,1394.306030 
	C7.245940,1377.181885 7.840111,1360.061157 7.917298,1342.937256 
	C7.963299,1332.732300 7.230544,1322.526001 7.054882,1312.316772 
	C6.960978,1306.859131 7.448543,1301.393433 7.427462,1295.932373 
	C7.353127,1276.674927 7.113537,1257.417969 7.061722,1238.160522 
	C7.041843,1230.772339 7.493116,1223.383179 7.485309,1215.994629 
	C7.476681,1207.829102 6.991260,1199.661743 7.074247,1191.498779 
	C7.164228,1182.647827 7.974098,1173.799438 7.926431,1164.952759 
	C7.845835,1149.994629 7.118237,1135.039307 7.080060,1120.081787 
	C7.050785,1108.611938 7.816566,1097.141968 7.930670,1085.669189 
	C7.991539,1079.548950 7.288609,1073.424927 7.167534,1067.298096 
	C7.008937,1059.272461 7.054765,1051.242432 7.066062,1043.214233 
	C7.085873,1029.136597 7.065273,1015.058105 7.220599,1000.981812 
	C7.311217,992.769653 7.962216,984.559326 7.908998,976.351135 
	C7.837757,965.363281 7.200471,954.380188 7.044209,943.391602 
	C6.894849,932.888550 6.939400,922.379395 7.102104,911.876099 
	C7.273827,900.790588 7.906648,889.709473 7.935005,878.625427 
	C7.967408,865.959412 7.376821,853.292236 7.384651,840.625732 
	C7.393260,826.698608 7.867556,812.772461 7.968908,798.844604 
	C8.078642,783.765015 7.991200,768.683960 7.991394,753.603577 
	C7.991624,735.688660 8.112554,717.772705 7.953038,699.859192 
	C7.846547,687.900269 7.132131,675.945740 7.085742,663.987732 
	C7.052193,655.339294 7.938295,646.688843 7.951957,638.038574 
	C8.037756,583.713623 8.052737,529.388306 7.963299,475.063416 
	C7.928695,454.045074 7.413813,433.027405 7.391000,412.009155 
	C7.373118,395.533722 7.903969,379.058044 7.940228,362.581940 
	C7.959456,353.844482 7.194184,345.104828 7.228839,336.367981 
	C7.282335,322.881195 7.837728,309.397003 7.960282,295.909729 
	C8.098188,280.733063 7.992098,265.554169 7.992072,250.376251 
	C7.992048,236.850510 8.099205,223.323669 7.961539,209.799332 
	C7.825074,196.392975 7.266960,182.989655 7.225999,169.583984 
	C7.196836,160.039612 7.947787,150.493088 7.927443,140.948410 
	C7.908114,131.880676 7.087938,122.814995 7.056456,113.746895 
	C6.940168,80.252296 6.981227,46.757053 7.016200,13.262105 
	C7.026062,3.816318 5.873875,5.015145 15.213214,5.014798 
	C490.142151,4.997111 965.071045,4.999643 1440.000000,5.000000 
M984.200806,984.705872 
	C988.471924,975.892456 993.348022,967.316040 996.908997,958.224548 
	C1012.008301,919.674927 1014.534912,879.820801 1006.974304,839.424622 
	C996.776978,784.940002 968.148621,743.293335 918.870300,716.671997 
	C916.073669,715.161194 913.186646,713.817505 909.614746,712.032776 
	C924.594666,704.185608 937.326294,695.037109 948.195740,683.307678 
	C964.945923,665.232117 978.052917,645.013977 985.011230,621.227905 
	C994.309021,589.444458 996.154236,557.203247 991.272766,524.376709 
	C982.910950,468.145691 954.925964,424.595154 907.073975,394.365387 
	C872.098572,372.270233 832.914124,363.558075 791.927124,363.465607 
	C703.636108,363.266357 615.343933,363.615631 527.052185,363.740051 
	C525.298584,363.742523 523.544983,363.740356 521.683044,363.740356 
	C521.683044,366.824097 521.952026,369.191559 521.627869,371.474762 
	C520.924866,376.425568 522.845093,379.594604 526.715698,382.824127 
	C552.206116,404.092255 571.436401,430.291138 584.743896,460.550812 
	C613.354858,525.608765 616.444946,592.653992 597.109314,660.556580 
	C584.510498,704.800842 559.741211,741.879761 525.079468,772.207458 
	C522.595764,774.380615 521.572754,776.577515 521.576538,779.862000 
	C521.689148,878.336914 521.715454,976.811890 521.755249,1075.286865 
	C521.755920,1076.899048 521.755371,1078.511230 521.755371,1080.439819 
	C524.312805,1080.439819 526.289001,1080.438721 528.265198,1080.439941 
	C613.566589,1080.488281 698.868225,1080.445190 784.169312,1080.640625 
	C810.206238,1080.700317 836.029846,1079.796875 861.425049,1073.051636 
	C913.374268,1059.253418 955.417053,1031.840454 984.200806,984.705872 
M103.779877,441.499878 
	C103.779877,654.372192 103.779877,867.244507 103.779877,1080.245361 
	C142.697952,1080.245361 180.937180,1080.245361 219.588516,1080.245361 
	C219.588516,878.079651 219.588516,676.255920 219.588516,474.427338 
	C220.454178,474.241791 220.922867,474.053223 221.391510,474.053375 
	C267.715912,474.070068 314.055450,473.391937 360.359344,474.381409 
	C391.051636,475.037292 416.268738,488.057343 433.673340,514.221558 
	C444.366852,530.297058 449.222687,548.356262 450.433960,567.363159 
	C452.053619,592.778809 448.394867,617.154175 434.212585,639.072998 
	C416.172394,666.954102 389.827362,680.028931 357.343109,680.845703 
	C329.202423,681.553101 301.031708,681.067200 272.874268,681.107605 
	C269.932983,681.111816 266.991669,681.108215 263.918884,681.108215 
	C263.918884,718.307373 263.918884,754.910950 263.918884,791.795532 
	C265.212769,791.864685 266.339081,791.978088 267.465332,791.977478 
	C298.294403,791.960510 329.132568,792.395142 359.950348,791.791443 
	C401.106415,790.985352 439.533936,779.849487 473.909241,757.080872 
	C528.802856,720.721802 557.679016,668.353210 564.999695,603.648315 
	C568.246033,574.955566 565.955078,546.464294 559.018799,518.381348 
	C549.547729,480.036041 531.772705,446.335999 502.758301,419.166962 
	C461.870270,380.879578 412.491547,363.728363 357.227905,363.383911 
	C283.782074,362.926147 210.329788,363.509216 136.880280,363.638580 
	C125.955185,363.657806 115.030037,363.641266 103.821167,363.641266 
	C103.821167,389.598206 103.821167,415.049225 103.779877,441.499878 
M1213.233521,937.697876 
	C1205.311646,950.491333 1194.343018,960.022034 1181.093628,966.845581 
	C1155.691406,979.928284 1128.746338,982.278076 1100.929810,977.571594 
	C1080.644775,974.139465 1062.377563,966.383240 1047.217285,952.097473 
	C1046.550171,951.468811 1045.673950,951.062012 1044.512817,950.301453 
	C1034.035522,990.208862 1013.668213,1023.969177 984.159790,1054.109741 
	C998.704224,1060.727783 1011.853821,1067.538208 1025.594727,1072.806763 
	C1065.156372,1087.975220 1106.331299,1091.890137 1148.344849,1088.792969 
	C1185.405029,1086.060913 1220.293945,1076.087280 1252.132080,1056.679810 
	C1292.975952,1031.782837 1321.141479,996.602600 1335.132568,950.748291 
	C1345.087891,918.120789 1346.753296,884.695374 1342.108276,850.920105 
	C1333.874634,791.049988 1302.825684,746.226868 1251.838135,714.863220 
	C1219.748413,695.124023 1184.789551,681.307861 1150.175415,666.773071 
	C1124.637451,656.049377 1099.235107,644.927429 1074.259399,632.966309 
	C1058.107910,625.231262 1045.155640,613.176208 1035.927979,597.514465 
	C1035.659668,597.058899 1035.073120,596.790649 1034.496704,596.322937 
	C1028.616455,639.529480 1012.440979,677.593445 981.961670,709.982788 
	C992.414612,716.901611 1002.051575,724.066956 1012.403931,729.979614 
	C1039.448120,745.425537 1068.243530,757.163391 1096.934326,769.155884 
	C1123.433716,780.232483 1149.802612,791.698364 1175.723267,804.053650 
	C1191.528564,811.587219 1205.015991,822.883545 1213.685181,838.466919 
	C1231.897583,871.204834 1230.834961,904.230957 1213.233521,937.697876 
M1220.019287,547.601746 
	C1220.567139,555.038391 1221.114868,562.475037 1221.682007,570.174438 
	C1260.943970,570.174438 1300.170776,570.174438 1339.837036,570.174438 
	C1339.837036,567.950378 1339.830200,566.147339 1339.838135,564.344299 
	C1339.933228,542.924255 1337.441650,521.838623 1331.903564,501.115997 
	C1319.723511,455.541534 1295.558350,418.189087 1256.044434,391.697937 
	C1224.907349,370.822815 1190.310059,359.601959 1153.068237,355.640656 
	C1103.804077,350.400513 1056.461792,356.356750 1011.494507,377.921631 
	C1000.079102,383.396088 989.375244,389.973328 979.126221,398.414948 
	C1007.804626,430.799072 1025.386230,468.237488 1033.227051,511.082123 
	C1034.082520,509.875854 1034.540771,509.414032 1034.785034,508.858124 
	C1040.399658,496.074646 1049.674072,486.521637 1061.245850,479.058014 
	C1072.616577,471.723999 1085.272339,467.651154 1098.489868,465.525879 
	C1124.986938,461.265350 1150.701904,463.402283 1174.485107,476.970703 
	C1201.501831,492.383728 1215.292480,516.615540 1220.019287,547.601746 
z"/>
<path fill="#0E1313" opacity="1.000000" stroke="none" 
	d="
M1440.000000,4.500000 
	C965.071045,4.999643 490.142151,4.997111 15.213214,5.014798 
	C5.873875,5.015145 7.026062,3.816318 7.016200,13.262105 
	C6.981227,46.757053 6.940168,80.252296 7.056456,113.746895 
	C7.087938,122.814995 7.908114,131.880676 7.927443,140.948410 
	C7.947787,150.493088 7.196836,160.039612 7.225999,169.583984 
	C7.266960,182.989655 7.825074,196.392975 7.961539,209.799332 
	C8.099205,223.323669 7.992048,236.850510 7.992072,250.376251 
	C7.992098,265.554169 8.098188,280.733063 7.960282,295.909729 
	C7.837728,309.397003 7.282335,322.881195 7.228839,336.367981 
	C7.194184,345.104828 7.959456,353.844482 7.940228,362.581940 
	C7.903969,379.058044 7.373118,395.533722 7.391000,412.009155 
	C7.413813,433.027405 7.928695,454.045074 7.963299,475.063416 
	C8.052737,529.388306 8.037756,583.713623 7.951957,638.038574 
	C7.938295,646.688843 7.052193,655.339294 7.085742,663.987732 
	C7.132131,675.945740 7.846547,687.900269 7.953038,699.859192 
	C8.112554,717.772705 7.991624,735.688660 7.991394,753.603577 
	C7.991200,768.683960 8.078642,783.765015 7.968908,798.844604 
	C7.867556,812.772461 7.393260,826.698608 7.384651,840.625732 
	C7.376821,853.292236 7.967408,865.959412 7.935005,878.625427 
	C7.906648,889.709473 7.273827,900.790588 7.102104,911.876099 
	C6.939400,922.379395 6.894849,932.888550 7.044209,943.391602 
	C7.200471,954.380188 7.837757,965.363281 7.908998,976.351135 
	C7.962216,984.559326 7.311217,992.769653 7.220599,1000.981812 
	C7.065273,1015.058105 7.085873,1029.136597 7.066062,1043.214233 
	C7.054765,1051.242432 7.008937,1059.272461 7.167534,1067.298096 
	C7.288609,1073.424927 7.991539,1079.548950 7.930670,1085.669189 
	C7.816566,1097.141968 7.050785,1108.611938 7.080060,1120.081787 
	C7.118237,1135.039307 7.845835,1149.994629 7.926431,1164.952759 
	C7.974098,1173.799438 7.164228,1182.647827 7.074247,1191.498779 
	C6.991260,1199.661743 7.476681,1207.829102 7.485309,1215.994629 
	C7.493116,1223.383179 7.041843,1230.772339 7.061722,1238.160522 
	C7.113537,1257.417969 7.353127,1276.674927 7.427462,1295.932373 
	C7.448543,1301.393433 6.960978,1306.859131 7.054882,1312.316772 
	C7.230544,1322.526001 7.963299,1332.732300 7.917298,1342.937256 
	C7.840111,1360.061157 7.245940,1377.181885 7.038705,1394.306030 
	C6.887384,1406.809937 6.967260,1419.317383 7.047460,1431.822632 
	C7.061039,1433.939941 7.597948,1436.053955 7.946535,1438.584717 
	C5.667070,1439.000000 3.334140,1439.000000 1.000908,1439.000000 
	C1.000605,959.749939 1.000605,480.499908 1.000605,1.124930 
	C480.666626,1.124930 960.333313,1.124930 1440.000000,1.124930 
	C1440.000000,2.000821 1440.000000,3.000411 1440.000000,4.500000 
z"/>
<path fill="#FDFDFD" opacity="1.000000" stroke="none" 
	d="
M984.049316,985.038147 
	C955.417053,1031.840454 913.374268,1059.253418 861.425049,1073.051636 
	C836.029846,1079.796875 810.206238,1080.700317 784.169312,1080.640625 
	C698.868225,1080.445190 613.566589,1080.488281 528.265198,1080.439941 
	C526.289001,1080.438721 524.312805,1080.439819 521.755371,1080.439819 
	C521.755371,1078.511230 521.755920,1076.899048 521.755249,1075.286865 
	C521.715454,976.811890 521.689148,878.336914 521.576538,779.862000 
	C521.572754,776.577515 522.595764,774.380615 525.079468,772.207458 
	C559.741211,741.879761 584.510498,704.800842 597.109314,660.556580 
	C616.444946,592.653992 613.354858,525.608765 584.743896,460.550812 
	C571.436401,430.291138 552.206116,404.092255 526.715698,382.824127 
	C522.845093,379.594604 520.924866,376.425568 521.627869,371.474762 
	C521.952026,369.191559 521.683044,366.824097 521.683044,363.740356 
	C523.544983,363.740356 525.298584,363.742523 527.052185,363.740051 
	C615.343933,363.615631 703.636108,363.266357 791.927124,363.465607 
	C832.914124,363.558075 872.098572,372.270233 907.073975,394.365387 
	C954.925964,424.595154 982.910950,468.145691 991.272766,524.376709 
	C996.154236,557.203247 994.309021,589.444458 985.011230,621.227905 
	C978.052917,645.013977 964.945923,665.232117 948.195740,683.307678 
	C937.326294,695.037109 924.594666,704.185608 909.614746,712.032776 
	C913.186646,713.817505 916.073669,715.161194 918.870300,716.671997 
	C968.148621,743.293335 996.776978,784.940002 1006.974304,839.424622 
	C1014.534912,879.820801 1012.008301,919.674927 996.908997,958.224548 
	C993.348022,967.316040 988.471924,975.892456 984.049316,985.038147 
M893.952515,880.321838 
	C893.985352,879.155945 894.015442,877.990051 894.051453,876.824219 
	C894.750854,854.204956 890.812866,832.677490 878.160034,813.482910 
	C859.861877,785.724121 832.151367,774.121033 800.649353,773.337036 
	C747.390320,772.011597 694.075012,772.949890 640.783325,772.955017 
	C639.693665,772.955139 638.604004,773.181946 637.668579,773.285828 
	C637.668579,839.018250 637.668579,904.371399 637.668579,969.647583 
	C638.390625,969.793579 638.716431,969.917114 639.042236,969.917053 
	C694.353027,969.905151 749.666870,970.204590 804.973022,969.688843 
	C824.102905,969.510498 842.118103,963.720825 857.620361,952.085266 
	C881.121399,934.446045 892.063049,910.130371 893.952515,880.321838 
M816.242371,660.835022 
	C845.938660,651.247070 865.934814,631.755005 874.662292,601.751221 
	C881.014526,579.913574 881.074280,557.620178 874.680237,535.706665 
	C868.706665,515.234070 857.375610,498.401459 838.650757,487.237335 
	C823.401184,478.145203 806.823547,473.975403 789.149109,473.972504 
	C740.173401,473.964508 691.197754,473.986725 642.222046,474.011444 
	C640.637207,474.012238 639.052551,474.169952 637.462769,474.254791 
	C637.462769,537.822144 637.462769,600.887451 637.462769,664.228638 
	C638.952820,664.345459 640.246033,664.535583 641.539246,664.535339 
	C687.470825,664.528259 733.402405,664.516357 779.333984,664.472168 
	C791.477478,664.460510 803.662781,664.779053 816.242371,660.835022 
z"/>
<path fill="#FDFDFD" opacity="1.000000" stroke="none" 
	d="
M103.800522,441.000061 
	C103.821167,415.049225 103.821167,389.598206 103.821167,363.641266 
	C115.030037,363.641266 125.955185,363.657806 136.880280,363.638580 
	C210.329788,363.509216 283.782074,362.926147 357.227905,363.383911 
	C412.491547,363.728363 461.870270,380.879578 502.758301,419.166962 
	C531.772705,446.335999 549.547729,480.036041 559.018799,518.381348 
	C565.955078,546.464294 568.246033,574.955566 564.999695,603.648315 
	C557.679016,668.353210 528.802856,720.721802 473.909241,757.080872 
	C439.533936,779.849487 401.106415,790.985352 359.950348,791.791443 
	C329.132568,792.395142 298.294403,791.960510 267.465332,791.977478 
	C266.339081,791.978088 265.212769,791.864685 263.918884,791.795532 
	C263.918884,754.910950 263.918884,718.307373 263.918884,681.108215 
	C266.991669,681.108215 269.932983,681.111816 272.874268,681.107605 
	C301.031708,681.067200 329.202423,681.553101 357.343109,680.845703 
	C389.827362,680.028931 416.172394,666.954102 434.212585,639.072998 
	C448.394867,617.154175 452.053619,592.778809 450.433960,567.363159 
	C449.222687,548.356262 444.366852,530.297058 433.673340,514.221558 
	C416.268738,488.057343 391.051636,475.037292 360.359344,474.381409 
	C314.055450,473.391937 267.715912,474.070068 221.391510,474.053375 
	C220.922867,474.053223 220.454178,474.241791 219.588516,474.427338 
	C219.588516,676.255920 219.588516,878.079651 219.588516,1080.245361 
	C180.937180,1080.245361 142.697952,1080.245361 103.779877,1080.245361 
	C103.779877,867.244507 103.779877,654.372192 103.800522,441.000061 
z"/>
<path fill="#FDFDFC" opacity="1.000000" stroke="none" 
	d="
M1213.449951,937.403870 
	C1230.834961,904.230957 1231.897583,871.204834 1213.685181,838.466919 
	C1205.015991,822.883545 1191.528564,811.587219 1175.723267,804.053650 
	C1149.802612,791.698364 1123.433716,780.232483 1096.934326,769.155884 
	C1068.243530,757.163391 1039.448120,745.425537 1012.403931,729.979614 
	C1002.051575,724.066956 992.414612,716.901611 981.961670,709.982788 
	C1012.440979,677.593445 1028.616455,639.529480 1034.496704,596.322937 
	C1035.073120,596.790649 1035.659668,597.058899 1035.927979,597.514465 
	C1045.155640,613.176208 1058.107910,625.231262 1074.259399,632.966309 
	C1099.235107,644.927429 1124.637451,656.049377 1150.175415,666.773071 
	C1184.789551,681.307861 1219.748413,695.124023 1251.838135,714.863220 
	C1302.825684,746.226868 1333.874634,791.049988 1342.108276,850.920105 
	C1346.753296,884.695374 1345.087891,918.120789 1335.132568,950.748291 
	C1321.141479,996.602600 1292.975952,1031.782837 1252.132080,1056.679810 
	C1220.293945,1076.087280 1185.405029,1086.060913 1148.344849,1088.792969 
	C1106.331299,1091.890137 1065.156372,1087.975220 1025.594727,1072.806763 
	C1011.853821,1067.538208 998.704224,1060.727783 984.159790,1054.109741 
	C1013.668213,1023.969177 1034.035522,990.208862 1044.512817,950.301453 
	C1045.673950,951.062012 1046.550171,951.468811 1047.217285,952.097473 
	C1062.377563,966.383240 1080.644775,974.139465 1100.929810,977.571594 
	C1128.746338,982.278076 1155.691406,979.928284 1181.093628,966.845581 
	C1194.343018,960.022034 1205.311646,950.491333 1213.449951,937.403870 
z"/>
<path fill="#FDFDFC" opacity="1.000000" stroke="none" 
	d="
M1219.958984,547.163208 
	C1215.292480,516.615540 1201.501831,492.383728 1174.485107,476.970703 
	C1150.701904,463.402283 1124.986938,461.265350 1098.489868,465.525879 
	C1085.272339,467.651154 1072.616577,471.723999 1061.245850,479.058014 
	C1049.674072,486.521637 1040.399658,496.074646 1034.785034,508.858124 
	C1034.540771,509.414032 1034.082520,509.875854 1033.227051,511.082123 
	C1025.386230,468.237488 1007.804626,430.799072 979.126221,398.414948 
	C989.375244,389.973328 1000.079102,383.396088 1011.494507,377.921631 
	C1056.461792,356.356750 1103.804077,350.400513 1153.068237,355.640656 
	C1190.310059,359.601959 1224.907349,370.822815 1256.044434,391.697937 
	C1295.558350,418.189087 1319.723511,455.541534 1331.903564,501.115997 
	C1337.441650,521.838623 1339.933228,542.924255 1339.838135,564.344299 
	C1339.830200,566.147339 1339.837036,567.950378 1339.837036,570.174438 
	C1300.170776,570.174438 1260.943970,570.174438 1221.682007,570.174438 
	C1221.114868,562.475037 1220.567139,555.038391 1219.958984,547.163208 
z"/>
<path fill="#020202" opacity="1.000000" stroke="none" 
	d="
M893.933960,880.797607 
	C892.063049,910.130371 881.121399,934.446045 857.620361,952.085266 
	C842.118103,963.720825 824.102905,969.510498 804.973022,969.688843 
	C749.666870,970.204590 694.353027,969.905151 639.042236,969.917053 
	C638.716431,969.917114 638.390625,969.793579 637.668579,969.647583 
	C637.668579,904.371399 637.668579,839.018250 637.668579,773.285828 
	C638.604004,773.181946 639.693665,772.955139 640.783325,772.955017 
	C694.075012,772.949890 747.390320,772.011597 800.649353,773.337036 
	C832.151367,774.121033 859.861877,785.724121 878.160034,813.482910 
	C890.812866,832.677490 894.750854,854.204956 894.051453,876.824219 
	C894.015442,877.990051 893.985352,879.155945 893.933960,880.797607 
z"/>
<path fill="#020202" opacity="1.000000" stroke="none" 
	d="
M815.847412,660.926880 
	C803.662781,664.779053 791.477478,664.460510 779.333984,664.472168 
	C733.402405,664.516357 687.470825,664.528259 641.539246,664.535339 
	C640.246033,664.535583 638.952820,664.345459 637.462769,664.228638 
	C637.462769,600.887451 637.462769,537.822144 637.462769,474.254791 
	C639.052551,474.169952 640.637207,474.012238 642.222046,474.011444 
	C691.197754,473.986725 740.173401,473.964508 789.149109,473.972504 
	C806.823547,473.975403 823.401184,478.145203 838.650757,487.237335 
	C857.375610,498.401459 868.706665,515.234070 874.680237,535.706665 
	C881.074280,557.620178 881.014526,579.913574 874.662292,601.751221 
	C865.934814,631.755005 845.938660,651.247070 815.847412,660.926880 
z"/>
</svg>